<svg xmlns="http://www.w3.org/2000/svg" xmlns:xlink="http://www.w3.org/1999/xlink" width="500" zoomAndPan="magnify" viewBox="0 0 375 374.999991" height="500" preserveAspectRatio="xMidYMid meet" version="1.0"><defs><g/></defs><g fill="#ffffff" fill-opacity="1"><g transform="translate(14.116581, 293.345111)"><g><path d="M 70.5625 2.890625 C 53.46875 2.890625 39.269531 -0.34375 27.96875 -6.8125 C 16.675781 -13.289062 8.457031 -22 3.3125 -32.9375 L 25.765625 -60.21875 L 29.21875 -60.21875 C 32.894531 -51.40625 38.109375 -44.445312 44.859375 -39.34375 C 51.609375 -34.25 59.441406 -31.703125 68.359375 -31.703125 C 78.367188 -31.703125 85.804688 -34.617188 90.671875 -40.453125 C 95.546875 -46.285156 97.984375 -55.769531 97.984375 -68.90625 L 97.984375 -201.484375 L 137.671875 -201.484375 L 137.671875 -68.21875 C 137.671875 -43.875 132.132812 -25.9375 121.0625 -14.40625 C 109.988281 -2.875 93.15625 2.890625 70.5625 2.890625 Z M 70.5625 2.890625 "/></g></g></g><g fill="#ffffff" fill-opacity="1"><g transform="translate(176.727324, 293.345111)"><g><path d="M 104.046875 -201.484375 C 118.472656 -201.484375 130.804688 -198.835938 141.046875 -193.546875 C 151.296875 -188.265625 159.035156 -180.867188 164.265625 -171.359375 C 169.503906 -161.859375 172.125 -150.8125 172.125 -138.21875 C 172.125 -125.632812 169.503906 -114.609375 164.265625 -105.140625 C 159.035156 -95.679688 151.296875 -88.3125 141.046875 -83.03125 C 130.804688 -77.75 118.472656 -75.109375 104.046875 -75.109375 L 66.015625 -75.109375 L 66.015625 0 L 26.1875 0 L 26.1875 -201.484375 Z M 98.8125 -106.671875 C 120.945312 -106.671875 132.015625 -117.1875 132.015625 -138.21875 C 132.015625 -159.351562 120.945312 -169.921875 98.8125 -169.921875 L 66.015625 -169.921875 L 66.015625 -106.671875 Z M 98.8125 -106.671875 "/></g></g></g></svg>